:version 1.10
:name ASF
:units
  mass 1
  length 1
  angle deg
:documentation
  ASF file generated by Kaydara
:root
  axis xyz
  order  tx ty tz rx ry rz
  position 0 0 0
  orientation 0 0 0
:bonedata
  begin
    id 1
    name RightUpLegDummy
    direction -0.718183 -0.695806 0.00816078
    length 4.904
    axis 0 0 0 xyz
  end
  begin
    id 2
    name RightUpLeg
    direction 3.53373e-006 -0.995788 0.0916898
    length 17.4976
    axis -3.49089 -0.000906625 0.000286804 xyz
    dof rx ry rz
  end
  begin
    id 3
    name RightLeg
    direction 0.00371092 -0.995096 -0.0988419
    length 16.5821
    axis 3.68512 0.0193738 -0.131023 xyz
    dof rx ry rz
  end
  begin
    id 4
    name RightFoot
    direction 0.00079151 -0.46099 0.887405
    length 3.77069
    axis 4.81691e-005 -0.120479 -0.188788 xyz
    dof rx ry rz
  end
  begin
    id 5
    name RightToes
    direction 0 0 0
    length 0
    axis 0 0 0 xyz
    dof rx ry rz
  end
  begin
    id 6
    name SpineDummy
    direction 8.3039e-015 1 4.57515e-016
    length 4.6813
    axis 0 0 0 xyz
  end
  begin
    id 7
    name Spine
    direction -3.15643e-008 0.999988 0.00495137
    length 10.1015
    axis -0.001389 0.000121418 2.40972e-006 xyz
    dof rx ry rz
  end
  begin
    id 8
    name Spine1
    direction 0 0 0
    length 0
    axis -0.001389 0.000121451 1.30017e-006 xyz
    dof rx ry rz
  end
  begin
    id 9
    name HEadDummy
    direction -1.99912e-008 0.999999 0.00127422
    length 3.43865
    axis -0.001389 0.000121451 1.30017e-006 xyz
  end
  begin
    id 10
    name HEad
    direction 0 0 0
    length 0
    axis 0 0 0 xyz
    dof rx ry rz
  end
  begin
    id 11
    name LeftShoulder1Dummy
    direction 0.998891 -0.0402509 -0.0244456
    length 3.5433
    axis -0.001389 0.000121451 1.30017e-006 xyz
  end
  begin
    id 12
    name LeftShoulder1
    direction 0.99951 -0.000327763 0.0313091
    length 4.05031
    axis -0.001389 0.000121451 1.30017e-006 xyz
    dof rx ry rz
  end
  begin
    id 13
    name LeftArm
    direction 0.998561 -0.00100056 -0.0536182
    length 10.3537
    axis -23.1894 0.134784 0.967509 xyz
    dof rx ry rz
  end
  begin
    id 14
    name LeftForeArm
    direction 0.998903 0.00866432 0.046012
    length 8.70632
    axis -9.91835 -0.06569 -0.177794 xyz
    dof rx ry rz
  end
  begin
    id 15
    name LeftHand
    direction 0 0 0
    length 0
    axis 0 0 0 xyz
    dof rx ry rz
  end
  begin
    id 16
    name RightShoulderDummy
    direction -0.998891 -0.0402509 -0.0244414
    length 3.5433
    axis -0.001389 0.000121451 1.30017e-006 xyz
  end
  begin
    id 17
    name RightShoulder
    direction -0.99951 -0.000327807 0.0313133
    length 4.05031
    axis 0.215806 0.000203643 -0.0068026 xyz
    dof rx ry rz
  end
  begin
    id 18
    name RightArm
    direction -0.998573 -0.000999564 -0.053403
    length 10.3947
    axis -23.2009 -0.134239 -0.964101 xyz
    dof rx ry rz
  end
  begin
    id 19
    name RightForeArm
    direction -0.998898 0.00868028 0.0461306
    length 8.68355
    axis -9.92322 0.0658061 0.178868 xyz
    dof rx ry rz
  end
  begin
    id 20
    name RightHand
    direction 0 0 0
    length 0
    axis 0 0 0 xyz
    dof rx ry rz
  end
  begin
    id 21
    name LeftUpLegDummy
    direction 0.718183 -0.695806 0.00816078
    length 4.904
    axis 0 0 0 xyz
  end
  begin
    id 22
    name LeftUpLeg
    direction -6.81752e-006 -0.995793 0.0916337
    length 17.4976
    axis -3.48766 0.00143442 -0.000524262 xyz
    dof rx ry rz
  end
  begin
    id 23
    name LeftLeg
    direction -0.00601358 -0.995091 -0.0987824
    length 16.5821
    axis 3.68178 -0.00654042 -0.000285133 xyz
    dof rx ry rz
  end
  begin
    id 24
    name LeftFoot
    direction -0.00417578 -0.460984 0.887399
    length 3.77069
    axis 1.87233e-006 4.66016e-005 -8.6538e-006 xyz
    dof rx ry rz
  end
  begin
    id 25
    name LeftToes
    direction 0 0 0
    length 0
    axis 0 0 0 xyz
    dof rx ry rz
  end
:hierarchy
  begin
    root RightUpLegDummy SpineDummy LeftUpLegDummy
    RightUpLegDummy RightUpLeg
    RightUpLeg RightLeg
    RightLeg RightFoot
    RightFoot RightToes
    SpineDummy Spine
    Spine Spine1
    Spine1 HEadDummy LeftShoulder1Dummy RightShoulderDummy
    HEadDummy HEad
    LeftShoulder1Dummy LeftShoulder1
    LeftShoulder1 LeftArm
    LeftArm LeftForeArm
    LeftForeArm LeftHand
    RightShoulderDummy RightShoulder
    RightShoulder RightArm
    RightArm RightForeArm
    RightForeArm RightHand
    LeftUpLegDummy LeftUpLeg
    LeftUpLeg LeftLeg
    LeftLeg LeftFoot
    LeftFoot LeftToes
  end

:SAMPLES-PER-SECOND 30
:FULLY-SPECIFIED
:DEGREES
80
root  34.1029 39.6664 -3.44913 -156.003 -86.7338 147.491
RightUpLeg  -18.4363 -10.0427 -6.59613
RightLeg  44.3156 -8.21707 -8.85148
RightFoot  1.46841 -0.631884 5.71332
RightToes  0.000481921 0.542163 -0.142578
Spine  7.46555 -0.977134 -1.25452
Spine1  7.09613 -1.42057 0.329936
HEad  -20.6603 7.62294 -7.24046
LeftShoulder1  9.68447 -13.8164 -48.8178
LeftArm  1.44687 -18.3172 -24.5151
LeftForeArm  22.0817 -18.9107 -4.9652
LeftHand  -0.25398 0.0180481 5.50724
RightShoulder  4.98073 8.91933 34.1434
RightArm  -12.4597 -29.8846 39.6914
RightForeArm  -22.9106 10.425 8.27086
RightHand  -1.85789 5.58985 -19.8436
LeftUpLeg  5.86479 6.87051 -1.67066
LeftLeg  16.3558 7.67207 1.44453
LeftFoot  -13.5219 0.125993 2.32929
LeftToes  1.06246e-005 4.65868e-005 -8.65514e-006
81
root  32.8014 39.5756 -3.64414 -159.117 -86.9771 150.876
RightUpLeg  -18.9619 -11.4406 -6.10113
RightLeg  32.9652 -6.54327 -4.81456
RightFoot  0.839279 -0.70758 6.67221
RightToes  0.000481921 0.542163 -0.142578
Spine  7.65682 -1.46556 -3.007
Spine1  6.43353 -2.72844 3.00714
HEad  -19.9341 9.49128 -5.43952
LeftShoulder1  9.33759 -13.7202 -47.3137
LeftArm  -0.230776 -23.289 -24.6902
LeftForeArm  21.8682 -24.2064 -3.91803
LeftHand  -0.25398 0.0180481 5.50724
RightShoulder  4.66064 8.50046 32.8836
RightArm  -9.59744 -33.2992 37.7053
RightForeArm  -22.9961 12.5014 8.31238
RightHand  -1.7511 5.62154 -18.6923
LeftUpLeg  8.14973 6.74289 -0.664468
LeftLeg  15.7714 7.49124 0.794331
LeftFoot  -15.1413 0.17162 2.41503
LeftToes  1.06246e-005 4.65868e-005 -8.65514e-006
82
root  31.4405 39.4061 -3.86635 -159.709 -86.9231 151.641
RightUpLeg  -19.0378 -13.1112 -5.64934
RightLeg  22.5612 -3.4781 -1.82503
RightFoot  0.340136 -0.690288 6.75918
RightToes  0.000481921 0.542163 -0.142578
Spine  7.6654 -1.85203 -4.54664
Spine1  6.16083 -3.74779 5.23762
HEad  -19.3313 11.0961 -3.87506
LeftShoulder1  9.0343 -13.6748 -45.8616
LeftArm  -5.81635 -27.6773 -23.7526
LeftForeArm  25.2769 -28.923 -4.87336
LeftHand  -0.25398 0.0180481 5.50724
RightShoulder  4.39867 8.15829 31.775
RightArm  -8.29408 -35.3098 35.7824
RightForeArm  -22.139 12.6995 8.29317
RightHand  -1.88045 6.27691 -18.9446
LeftUpLeg  10.6301 6.75089 0.0822027
LeftLeg  15.2434 7.25952 0.298862
LeftFoot  -16.9136 0.203972 2.134
LeftToes  1.06246e-005 4.65868e-005 -8.65514e-006
83
root  30.0186 39.1481 -4.11871 -160.217 -86.8539 152.062
RightUpLeg  -18.8331 -14.4072 -5.33787
RightLeg  15.244 -0.794627 -0.209596
RightFoot  -0.725192 -0.640712 6.84168
RightToes  0.000481921 0.542163 -0.142578
Spine  7.72939 -2.19182 -5.51896
Spine1  6.13125 -4.53909 6.83319
HEad  -18.6883 12.3248 -2.20089
LeftShoulder1  8.84574 -13.6834 -44.8446
LeftArm  -10.1564 -31.4951 -22.0733
LeftForeArm  27.1702 -32.8794 -5.71408
LeftHand  -0.25398 0.0180481 5.50724
RightShoulder  4.23513 7.9623 30.9877
RightArm  -9.58385 -36.2597 34.1038
RightForeArm  -21.0103 11.1686 8.19405
RightHand  -1.97941 6.59184 -19.4106
LeftUpLeg  13.3602 7.07028 1.0004
LeftLeg  15.061 6.47633 -0.0597391
LeftFoot  -19.0856 0.170347 0.844388
LeftToes  1.06246e-005 4.65868e-005 -8.65514e-006
84
root  28.5397 38.8308 -4.42665 -162.78 -87.1272 154.467
RightUpLeg  -18.5741 -13.7317 -5.51989
RightLeg  12.4548 -0.887003 0.498999
RightFoot  -1.10536 -0.680905 7.48915
RightToes  0.000481921 0.542163 -0.142578
Spine  7.74082 -2.50798 -5.76411
Spine1  6.15909 -5.15235 7.92118
HEad  -17.6654 12.9256 -0.190691
LeftShoulder1  8.76496 -13.7544 -44.2243
LeftArm  -13.495 -34.5862 -20.327
LeftForeArm  28.3107 -35.7793 -6.39092
LeftHand  -0.25398 0.0180481 5.50724
RightShoulder  4.19486 7.94819 30.6769
RightArm  -12.5923 -36.7805 32.9254
RightForeArm  -21.1934 8.92923 7.5617
RightHand  -2.04092 6.57105 -20.019
LeftUpLeg  15.977 7.63022 2.32893
LeftLeg  15.4275 5.12171 -0.0784929
LeftFoot  -21.0798 0.0713016 -0.665257
LeftToes  1.06246e-005 4.65868e-005 -8.65514e-006
85
root  27.0163 38.5174 -4.81104 -171.505 -87.66 163.337
RightUpLeg  -19.1348 -13.7083 -4.70097
RightLeg  14.3669 -0.87451 0.0869478
RightFoot  0.194046 -0.7431 7.39303
RightToes  0.000481921 0.542163 -0.142578
Spine  7.37107 -2.71735 -5.46804
Spine1  6.16482 -5.59356 8.95593
HEad  -16.2239 13.0089 1.82852
LeftShoulder1  8.64035 -13.751 -43.5705
LeftArm  -15.8697 -36.5861 -19.6248
LeftForeArm  29.4562 -37.6786 -6.83994
LeftHand  -0.25398 0.0180481 5.50724
RightShoulder  4.21211 8.00322 30.6512
RightArm  -15.6242 -37.2141 32.4318
RightForeArm  -24.0395 7.08614 6.53401
RightHand  -2.28377 7.13075 -21.338
LeftUpLeg  17.945 7.75349 3.74626
LeftLeg  16.4036 4.03797 0.562114
LeftFoot  -22.3965 -0.0684203 -2.08767
LeftToes  1.06246e-005 4.65868e-005 -8.65514e-006
86
root  25.4441 38.2286 -5.26426 167.955 -87.9787 -175.812
RightUpLeg  -20.3775 -13.5277 -3.20306
RightLeg  19.5966 -1.01384 -0.672459
RightFoot  2.01916 -0.575779 5.04894
RightToes  0.000481921 0.542163 -0.142578
Spine  6.81729 -2.79796 -4.74511
Spine1  6.13716 -5.8636 10.1161
HEad  -14.7854 12.8822 3.28719
LeftShoulder1  8.45113 -13.6209 -42.9036
LeftArm  -17.4847 -37.0021 -20.1391
LeftForeArm  30.8252 -39.0639 -7.1507
LeftHand  -0.25398 0.0180481 5.50724
RightShoulder  4.22395 8.01243 30.726
RightArm  -18.1395 -37.3069 32.3847
RightForeArm  -28.5217 6.09431 5.79216
RightHand  -2.69452 8.3962 -22.8355
LeftUpLeg  19.2156 6.28583 4.77319
LeftLeg  18.3701 4.21942 1.73504
LeftFoot  -23.2876 -0.407031 -5.18581
LeftToes  1.06246e-005 4.65868e-005 -8.65514e-006
87
root  23.8367 37.9669 -5.75294 139.87 -87.6877 -147.747
RightUpLeg  -21.2467 -12.8567 -1.70287
RightLeg  25.8988 -1.59989 -1.06375
RightFoot  1.84846 -0.138244 1.22987
RightToes  0.000481921 0.542163 -0.142578
Spine  6.57842 -2.88144 -3.3443
Spine1  6.28654 -5.98855 10.9948
HEad  -13.8028 12.5664 4.01023
LeftShoulder1  8.41159 -13.5695 -42.8267
LeftArm  -18.3122 -35.5727 -20.8468
LeftForeArm  31.8146 -40.483 -7.50843
LeftHand  -0.25398 0.0180481 5.50724
RightShoulder  4.28465 8.06064 31.1014
RightArm  -19.8456 -36.5463 32.5047
RightForeArm  -32.9568 5.91528 5.48067
RightHand  -2.95455 9.32252 -23.4467
LeftUpLeg  19.7768 3.29013 5.58484
LeftLeg  22.3634 5.80072 2.97721
LeftFoot  -22.9157 -0.890957 -10.2743
LeftToes  1.06246e-005 4.65868e-005 -8.65514e-006
88
root  22.243 37.76 -6.25052 118.613 -86.9299 -126.85
RightUpLeg  -21.0496 -13.2394 -0.16238
RightLeg  31.3372 -1.52291 -1.24275
RightFoot  -1.20922 0.125162 -1.48317
RightToes  0.000481921 0.542163 -0.142578
Spine  6.57616 -3.06891 -1.20863
Spine1  6.7989 -5.94586 11.0242
HEad  -13.3054 11.9819 4.30315
LeftShoulder1  8.66159 -13.7618 -43.6537
LeftArm  -17.766 -32.602 -21.0192
LeftForeArm  32.0921 -41.8813 -7.91994
LeftHand  -0.25398 0.0180481 5.50724
RightShoulder  4.47623 8.28089 32.039
RightArm  -20.9 -34.5791 32.8296
RightForeArm  -35.9446 6.03878 5.4222
RightHand  -2.89986 9.28446 -23.0815
LeftUpLeg  18.5733 1.6197 7.04277
LeftLeg  29.7649 7.22981 4.8247
LeftFoot  -18.8067 -0.757309 -13.1588
LeftToes  1.06246e-005 4.65868e-005 -8.65514e-006
89
root  20.7297 37.6326 -6.73504 105.111 -86.0996 -113.532
RightUpLeg  -19.9034 -14.0437 1.04985
RightLeg  34.9291 -1.41566 -1.32548
RightFoot  -5.41385 0.0618343 -1.80492
RightToes  0.000481921 0.542163 -0.142578
Spine  6.39104 -3.24937 1.37729
Spine1  7.47728 -5.59781 10.115
HEad  -12.8699 10.9757 4.57646
LeftShoulder1  9.07713 -14.0588 -45.0414
LeftArm  -15.4441 -28.7306 -21.0225
LeftForeArm  32.4439 -42.6184 -8.13061
LeftHand  -0.25398 0.0180481 5.50724
RightShoulder  4.76513 8.60134 33.4205
RightArm  -21.1496 -31.2825 33.4361
RightForeArm  -37.4189 5.99602 5.59696
RightHand  -2.75401 8.91003 -22.5201
LeftUpLeg  14.5826 1.52256 8.72938
LeftLeg  40.216 8.64101 8.15698
LeftFoot  -10.3389 0.0982797 -9.91647
LeftToes  1.06246e-005 4.65868e-005 -8.65514e-006
90
root  19.3594 37.6191 -7.17196 96.8103 -85.4565 -105.072
RightUpLeg  -18.2726 -14.7493 1.90189
RightLeg  36.6214 -1.35973 -1.35855
RightFoot  -8.67097 -0.0347652 -1.06793
RightToes  0.000481921 0.542163 -0.142578
Spine  6.11421 -3.25446 3.97937
Spine1  8.01801 -4.84998 8.66852
HEad  -12.4252 9.80444 4.71268
LeftShoulder1  9.50643 -14.277 -46.6468
LeftArm  -11.8459 -24.251 -21.3487
LeftForeArm  33.4846 -42.0697 -7.88953
LeftHand  -0.25398 0.0180481 5.50724
RightShoulder  5.0571 8.86917 34.9131
RightArm  -20.3178 -26.7166 34.0251
RightForeArm  -38.0528 5.97529 6.11627
RightHand  -2.72759 8.98341 -22.2061
LeftUpLeg  8.91042 2.15894 9.89706
LeftLeg  50.5214 9.11049 12.0689
LeftFoot  -2.03695 0.30514 -3.36485
LeftToes  1.06246e-005 4.65868e-005 -8.65514e-006
91
root  18.07 37.8186 -7.55195 93.6824 -85.3394 -101.845
RightUpLeg  -15.8157 -15.3455 2.0373
RightLeg  36.4386 -1.0906 -1.14183
RightFoot  -10.5023 -0.0660686 -0.774711
RightToes  0.000481921 0.542163 -0.142578
Spine  6.04878 -2.97542 5.82625
Spine1  8.40729 -3.84847 7.06273
HEad  -12.1098 8.62151 4.38212
LeftShoulder1  9.93099 -14.4123 -48.3929
LeftArm  -7.85783 -18.9179 -21.9556
LeftForeArm  34.2509 -39.8294 -7.16347
LeftHand  -0.25398 0.0180481 5.50724
RightShoulder  5.31491 9.08329 36.2383
RightArm  -19.0237 -21.1945 34.3044
RightForeArm  -37.7478 6.58307 6.82034
RightHand  -2.7417 9.38944 -21.7355
LeftUpLeg  3.46631 3.25884 10.0659
LeftLeg  58.052 8.44185 14.7424
LeftFoot  1.11406 -0.0320575 0.364372
LeftToes  1.06246e-005 4.65868e-005 -8.65514e-006
92
root  16.7636 38.2691 -7.88444 94.5916 -85.8771 -102.881
RightUpLeg  -12.0789 -16.1892 1.12275
RightLeg  34.2217 -0.200018 -0.418721
RightFoot  -11.4062 -0.0771362 -0.538106
RightToes  0.000481921 0.542163 -0.142578
Spine  6.01962 -2.46844 6.59693
Spine1  8.81784 -2.82152 5.42689
HEad  -11.8035 7.47194 3.50147
LeftShoulder1  10.3149 -14.4982 -50.0272
LeftArm  -3.57176 -12.7559 -22.7151
LeftForeArm  32.8547 -35.2514 -5.95392
LeftHand  -0.25398 0.0180481 5.50724
RightShoulder  5.49575 9.256 37.062
RightArm  -18.4186 -15.3071 34.5808
RightForeArm  -36.1219 8.10242 7.3477
RightHand  -2.60323 9.48665 -20.5493
LeftUpLeg  -1.04629 4.77497 9.13749
LeftLeg  61.7202 7.37652 15.1015
LeftFoot  0.224214 -0.0507412 0.462064
LeftToes  1.06246e-005 4.65868e-005 -8.65514e-006
93
root  15.4371 38.7972 -8.16595 97.7356 -86.6287 -105.972
RightUpLeg  -7.91882 -17.4973 -0.376483
RightLeg  30.9023 1.42636 0.663602
RightFoot  -11.7441 -0.078491 0.396238
RightToes  0.000481921 0.542163 -0.142578
Spine  5.6198 -1.85575 7.14217
Spine1  9.1851 -1.74527 3.70321
HEad  -11.1422 6.30188 2.32853
LeftShoulder1  10.5738 -14.5208 -51.2037
LeftArm  1.65837 -6.57265 -23.6014
LeftForeArm  28.6287 -27.3881 -4.6036
LeftHand  -0.25398 0.0180481 5.50724
RightShoulder  5.48591 9.23199 37.0636
RightArm  -18.4511 -9.76327 35.3802
RightForeArm  -34.5234 10.5505 7.5973
RightHand  -2.29616 9.02929 -18.7707
LeftUpLeg  -5.14082 6.32877 7.58414
LeftLeg  61.7881 6.42411 13.376
LeftFoot  -1.27597 0.100741 -1.05062
LeftToes  1.06246e-005 4.65868e-005 -8.65514e-006
94
root  14.1065 39.2939 -8.40513 104.502 -87.2599 -112.262
RightUpLeg  -4.152 -19.1858 -1.94069
RightLeg  27.416 3.64238 1.77218
RightFoot  -11.3539 -0.0770037 1.44595
RightToes  0.000481921 0.542163 -0.142578
Spine  4.85118 -1.07578 8.00869
Spine1  9.2063 -0.437981 1.7099
HEad  -10.0645 5.02204 1.13261
LeftShoulder1  10.7422 -14.5262 -51.9859
LeftArm  2.97916 -0.895415 -24.0556
LeftForeArm  27.6324 -16.2105 -5.20255
LeftHand  -0.25398 0.0180481 5.50724
RightShoulder  5.25206 8.89025 36.3823
RightArm  -17.5695 -4.97291 36.5571
RightForeArm  -35.3912 14.047 7.55629
RightHand  -2.0135 8.41831 -17.254
LeftUpLeg  -8.99334 7.7167 5.76636
LeftLeg  58.8558 5.96727 11.0871
LeftFoot  -2.02542 0.179184 -2.04283
LeftToes  1.06246e-005 4.65868e-005 -8.65514e-006
